<?xml version="1.0" encoding="UTF-8"?>
<!DOCTYPE svg PUBLIC "-//W3C//DTD SVG 1.1//EN" "http://www.w3.org/Graphics/SVG/1.1/DTD/svg11.dtd">
<svg width="1000" height="500" xmlns="http://www.w3.org/2000/svg">
  <title>Adapter Pattern (using delegation)</title>
  <defs>
    <style type="text/css">
      <![CDATA[
        g{
          stroke       : #000;
        }
        rect, path, circle{
          fill         : #fff;
          fill-opacity : 0;
        }
        rect{
          stroke-width : 6;
        }
        path, circle, line{
          stroke-width : 2;
        }
        text{
          fill         : #000;
          stroke-width : 0;
          font-family  : sans-serif;
        }
        text.name{
          font-size    : 25px;
          font-weight  : bold;
          text-anchor  : middle;
        }
        text.item{
          font-size    : 25px;
        }
        text.visibility{
          font-size    : 28px;
          font-family  : monospace;
          font-weight  : bold;
          text-anchor  : middle;
        }
        text.abstract{
          font-style   : italic;
        }
        text.relation{
          font-size    : 20px;
          text-anchor  : middle;
        }
        text.note{
          font-size    : 20px;
        }
      ]]>
    </style>
  </defs>
  <g transform="translate(40,40)">
    <rect width="320" height="162"/>
    <line x1="0" x2="320" y1="60" y2="60"/>
    <line x1="0" x2="320" y1="110" y2="110"/>
    <text x="160" y="45" class="name">Adapter</text>
    <text x="30" y="95" class="visibility">-</text>
    <text x="60" y="95" class="item">adaptee : Adaptee</text>
    <text x="30" y="145" class="visibility">+</text>
    <text x="60" y="145" class="item">requiredMethod()</text>
  </g>
  <g transform="translate(40,320)">
    <rect width="320" height="132"/>
    <line x1="0" x2="320" y1="60" y2="60"/>
    <line x1="0" x2="320" y1="80" y2="80"/>
    <text x="160" y="45" class="name">Adaptee</text>
    <text x="30" y="115" class="visibility">+</text>
    <text x="60" y="115" class="item">oldMethod()</text>
  </g>
  <g transform="translate(640,40)">
    <rect width="320" height="132"/>
    <line x1="0" x2="320" y1="60" y2="60"/>
    <line x1="0" x2="320" y1="80" y2="80"/>
    <text y="45" x="160" class="name abstract">Target</text>
    <text x="30" y="115" class="visibility">+</text>
    <text x="60" y="115" class="item abstract">requiredMethod()</text>
  </g>
  <g transform="translate(200,200)">
    <desc>Adapter has Adaptee</desc>
    <path d="M 0 7 l -10 20 l 10 20 l 10 -20 z"/>
    <path d="M 0 47 L 0 120"/>
  </g>
  <g transform="translate(360,110)">
    <desc>class Adapter extends Target</desc>
    <path d="M 0 0 L 245 0"/>
    <path d="M 245 -15 l 30 15 l -30 15 z"/>
    <text x="125" y="-10" class="relation">extends►</text>
  </g>
  <g transform="translate(400,225)">
    <!-- paper frame with a dog ear -->
    <path d="M 300 20 l 0 50 l -300 0 l 0 -70 l 280 0 c 5 5 5 15 0 20 c 5 2 15 2 20 0"/>
    <!-- folding line -->
    <path d="M 280 0 l 20 20" stroke-linecap="round"/>
    <!-- connector -->
    <path d="M 0 35 L -65 35 L -65 -43" stroke-dasharray="6,3"/>
    <circle cx="-65" cy="-50" r="8"/>
    <text x="20" y="40" class="note">this.adaptee.oldMethod();</text>
  </g>
</svg>