<?xml version="1.0" encoding="UTF-8"?>
<!DOCTYPE svg PUBLIC "-//W3C//DTD SVG 1.1//EN" "http://www.w3.org/Graphics/SVG/1.1/DTD/svg11.dtd">
<svg width="1700" height="650" xmlns="http://www.w3.org/2000/svg">
  <title>Abstract Factory Pattern</title>
  <defs>
    <style type="text/css">
      <![CDATA[
      g {
        stroke : #000;
      }
      rect, path {
        fill         : #fff;
        fill-opacity : 0;
      }
      rect {
        stroke-width : 6;
      }
      path, line{
        stroke-width : 2;
      }
      text {
        font-family  : sans-serif;
        stroke-width : 0;
      }
      text.name {
        font-size    : 25px;
        font-weight  : bold;
        text-anchor  : middle;
      }
      text.item {
        font-size    : 25px;
      }
      text.visibility {
        font-size   : 28px;
        font-weight : bold;
        font-family : monospace;
      }
      text.abstract {
        font-size   : 25px;
        font-style  : italic;
      }
      text.relation {
        font-size   : 20px;
        text-anchor : middle;
      }
      text.stereotype {
        font-size   : 20px;
        text-anchor : middle;
      }
      ]]>
    </style>
  </defs>
  <g transform="translate(40,100)">
    <rect width="400" height="167"/>
    <line x1="0" x2="400" y1="60" y2="60"/>
    <line x1="0" x2="400" y1="80" y2="80"/>
    <text x="200" y="45" class="name abstract">AbstractFactory</text>
    <text x="30" y="115" class="visibility">+</text>
    <text x="60" y="115" class="item abstract">createProduct1() : Product1</text>
    <text x="30" y="150" class="visibility">+</text>
    <text x="60" y="150" class="item abstract">createProduct2() : Product2</text>
  </g>
  <g transform="translate(40,400)">
    <rect width="400" height="167"/>
    <line x1="0" x2="400" y1="60" y2="60"/>
    <line x1="0" x2="400" y1="80" y2="80"/>
    <text x="200" y="45" class="name">ConcreteFactory</text>
    <text x="30" y="115" class="visibility">+</text>
    <text x="60" y="115" class="item">createProduct1() : Product1</text>
    <text x="30" y="150" class="visibility">+</text>
    <text x="60" y="150" class="item">createProduct2() : Product2</text>
  </g>
  <g transform="translate(520,100)">
    <rect width="320" height="102"/>
    <line x1="0" x2="320" y1="60" y2="60"/>
    <line x1="0" x2="320" y1="80" y2="80"/>
    <text x="160" y="45" class="name abstract">Product1</text>
  </g>
  <g transform="translate(920,100)">
    <rect width="320" height="102"/>
    <line x1="0" x2="320" y1="60" y2="60"/>
    <line x1="0" x2="320" y1="80" y2="80"/>
    <text x="160" y="45" class="name abstract">Product2</text>
  </g>
  <g class="class" transform="translate(520,400)">
    <rect width="320" height="102"/>
    <line x1="0" x2="320" y1="60" y2="60"/>
    <line x1="0" x2="320" y1="80" y2="80"/>
    <text x="160" y="45" class="name">ConcreteProduct1</text>
  </g>
  <g class="class" transform="translate(920,400)">
    <rect width="320" height="102"/>
    <line x1="0" x2="320" y1="60" y2="60"/>
    <line x1="0" x2="320" y1="80" y2="80"/>
    <text x="160" y="45" class="name">ConcreteProduct2</text>
  </g>
  <g transform="translate(1320,100)">
    <rect width="320" height="102"/>
    <line x1="0" x2="320" y1="60" y2="60"/>
    <line x1="0" x2="320" y1="80" y2="80"/>
    <text x="160" y="45" class="name">Client</text>
  </g>
  <g transform="translate(240,270)">
    <desc>class ConcreteFactory extends Factory</desc>
    <path d="M 0 2 l -15 30 l 30 0 z"/>
    <line x1="0" y1="32" x2="0" y2="130"/>
  </g>
  <g transform="translate(680,205)">
    <desc>class ConcreteProduct1 extends Product1</desc>
    <path d="M 0 2 l -15 30 l 30 0 z"/>
    <line x1="0" y1="32" x2="0" y2="195"/>
  </g>
  <g transform="translate(1080,205)">
    <desc>class ConcreteProduct2 extends Product2</desc>
    <path d="M 0 2 l -15 30 l 30 0 z"/>
    <line x1="0" y1="32" x2="0" y2="195"/>
  </g>
  <g transform="translate(240,570)">
    <desc>ConcreteFactory creates ConcreteProduct1 and ConcreteProduct2</desc>
    <path d="M 430 -43 l 10 -20 l 10 20"/>
    <path d="M 830 -43 l 10 -20 l 10 20"/>
    <path d="M 440 -63 l 0 35 l 400 0 l 0 -35" stroke-dasharray="6,3"/>
    <path d="M 640 -28 l 0 60 l -640 0 l 0 -32" stroke-dasharray="6,3"/>
    <text x="320" y="22" class="stereotype">«create»</text>
  </g>

  <g transform="translate(240,0)">
    <desc>class Client use AbstractFactory</desc>
    <path d="M -10 80 l 10 20 l 10 -20"/>
    <path d="M 1240 100 l 0 -35 l -1240 0 l 0 35" stroke-dasharray="6,3"/>
    <path d="M 430 80 l 10 20 l 10 -20"/>
    <path d="M 440 65 l 0 35" stroke-dasharray="6,3"/>
    <path d="M 830 80 l 10 20 l 10 -20"/>
    <path d="M 840 65 l 0 35" stroke-dasharray="6,3"/>
    <text x="320" y="55" class="stereotype">«use»</text>
  </g>
</svg>