<?xml version="1.0" encoding="UTF-8" ?>
<!DOCTYPE svg PUBLIC "-//W3C//DTD SVG 1.1//EN" "http://www.w3.org/Graphics/SVG/1.1/DTD/svg11.dtd">
<svg width="1400" height="480" xmlns="http://www.w3.org/2000/svg" viewBox="0 0 1400 480">
  <title>Builder Pattern</title>
  <defs>
    <style type="text/css">
      <![CDATA[
        g{
          stroke : #000;
        }
        rect, path, circle{
          fill         : #fff;
          fill-opacity : 0;
        }
        rect{
          stroke-width : 6;
        }
        path, circle, line{
          stroke-width : 2;
        }
        text{
          font-family  : sans-serif;
          stroke-width : 0;
        }
        text.name{
          font-size    : 25px;
          font-weight  : bold;
          text-anchor  : middle;
        }
        text.item{
          font-size    : 25px;
        }
        text.visibility{
          font-size   : 28px;
          font-weight : bold;
          font-family : monospace;
        }
        text.abstract{
          font-size   : 25px;
          font-style  : italic;
        }
        text.roll, text.note{
          font-size   : 20px;
        }
      ]]>
    </style>
  </defs>
  <g transform="translate(40,40)">
    <rect width="320" height="162" />
    <line x1="0" x2="320" y1="60"  y2="60" />
    <line x1="0" x2="320" y1="110" y2="110" />
    <text x="160" y="45"  class="name">Director</text>
    <text x="30"  y="95"  class="item">builder : Builder</text>
    <text x="30"  y="145" class="item">construct()</text>
  </g>
  <g transform="translate(540,40)">
    <rect width="320" height="132" />
    <line x1="0" x2="320" y1="60" y2="60" />
    <line x1="0" x2="320" y1="80" y2="80" />
    <text x="160" y="45"  class="name abstract">Builder</text>
    <text x="30"  y="115" class="item abstract">buildPart()</text>
  </g>
  <g class="class" transform="translate(1040,40)">
    <rect width="320" height="167" />
    <line x1="0" x2="320" y1="60" y2="60" />
    <line x1="0" x2="320" y1="80" y2="80" />
    <text x="160" y="45"  class="name">ConcreteBuilder</text>
    <text x="30"  y="115" class="item">buildPart()</text>
    <text x="30"  y="150" class="item">getResult() : Product</text>
  </g>
  <g transform="translate(1080,340)">
    <rect width="240" height="102" />
    <line x1="0" x2="240" y1="60" y2="60" />
    <line x1="0" x2="240" y1="80" y2="80" />
    <text x="120" y="45"  class="name">Product</text>
  </g>
  <g transform="translate(360,105)">
    <desc>Director has Builder</desc>
    <path d="M 5 0 l 20 -10 l 20 10 l -20 10 z" />
    <line x1="45" y1="0" x2="180" y2="0" />
  </g>
  <g transform="translate(860,105)">
    <desc>class ConcreteBuilder extends Builder</desc>
    <path d="M 5 0 l 30 -15 l 0 30 z" />
    <line x1="35" y1="0" x2="180" y2="0" />
  </g>
  <g transform="translate(1200,205)">
    <desc>ConcreteBuilder creates Product.</desc>
    <path d="M -10 110 l 10 20 l 10 -20" />
    <line x1="0" x2="0" y1="118"  y2="135" />
    <line x1="0" x2="0" y1="0" y2="118" stroke-dasharray="6,3" />
    <text class="roll" x="5" y="70">&lt;&lt; create &gt;&gt;</text>
  </g>
  <g transform="translate(420,260)">
    <!-- paper frame with a dog ear -->
    <path d="M 300 20 l 0 50 l -300 0 l 0 -70 l 280 0 c 5 5 5 15 0 20 c 5 2 15 2 20 0" />
    <!-- folding line -->
    <path d="M 280 0 l 20 20" stroke-linecap="round" />
    <!-- connector -->
    <path d="M 0 35 L -85 35 L -85 -72" stroke-dasharray="6,3" />
    <circle cx="-85" cy="-80" r="8" />
    <text x="20" y="40" class="note">this.builder.buildPart();</text>
  </g>
</svg>