<?xml version="1.0" encoding="UTF-8"?>
<!DOCTYPE svg PUBLIC "-//W3C//DTD SVG 1.1//EN" "http://www.w3.org/Graphics/SVG/1.1/DTD/svg11.dtd">
<svg width="1000" height="500" xmlns="http://www.w3.org/2000/svg">
  <title>Factory Method Pattern</title>
  <defs>
    <style type="text/css">
      <![CDATA[
      g {
        stroke : #000;
      }
      rect, path {
        fill         : #fff;
        fill-opacity : 0;
      }
      rect {
        stroke-width : 6;
      }
      path, line{
        stroke-width : 2;
      }
      text {
        font-family  : sans-serif;
        stroke-width : 0;
      }
      text.name {
        font-size    : 25px;
        font-weight  : bold;
        text-anchor  : middle;
      }
      text.item {
        font-size    : 25px;
      }
      text.visibility {
        font-size   : 28px;
        font-weight : bold;
        font-family : monospace;
      }
      text.abstract {
        font-size   : 25px;
        font-style  : italic;
      }
      text.stereotype {
        font-size   : 20px;
        text-anchor : middle;
      }
      ]]>
    </style>
  </defs>
  <g transform="translate(40,40)">
    <rect width="400" height="167"/>
    <line x1="0" x2="400" y1="60" y2="60"/>
    <line x1="0" x2="400" y1="80" y2="80"/>
    <text x="200" y="45" class="name abstract">Creator</text>
    <text x="30" y="115" class="visibility">#</text>
    <text x="60" y="115" class="item abstract">factoryMethod() : Product</text>
    <text x="30" y="150" class="visibility">+</text>
    <text x="60" y="150" class="item">anOperation()</text>
  </g>
  <g transform="translate(40,330)">
    <rect width="400" height="132"/>
    <line x1="0" x2="400" y1="60" y2="60"/>
    <line x1="0" x2="400" y1="80" y2="80"/>
    <text x="200" y="45" class="name">ConcreteCreator</text>
    <text x="30" y="115" class="visibility">+</text>
    <text x="60" y="115" class="item">factoryMethod() : Product</text>
  </g>
  <g transform="translate(640,40)">
    <rect width="320" height="102"/>
    <line x1="0" x2="320" y1="60" y2="60"/>
    <line x1="0" x2="320" y1="80" y2="80"/>
    <text x="160" y="45" class="name abstract">Product</text>
  </g>
  <g class="class" transform="translate(640,330)">
    <rect width="320" height="102"/>
    <line x1="0" x2="320" y1="60" y2="60"/>
    <line x1="0" x2="320" y1="80" y2="80"/>
    <text x="160" y="45" class="name">ConcreteProduct</text>
  </g>
  <g transform="translate(240,210)">
    <desc>class ConcreteCreator extends Creator.</desc>
    <path d="M 0 2 l -15 30 l 30 0 z"/>
    <line x1="0" y1="32" x2="0" y2="120"/>
  </g>
  <g transform="translate(800,145)">
    <desc>class ConcreteProduct extends Product.</desc>
    <path d="M 0 2 l -15 30 l 30 0 z"/>
    <line x1="0" y1="32" x2="0" y2="185"/>
  </g>
  <g transform="translate(440,90)">
    <desc>Creator uses Product.</desc>
    <path d="M 175 -10 l 20 10 l -20 10"/>
    <line x1="0" y1="0" x2="195" y2="0" stroke-dasharray="6,3"/>
    <text x="100" y="-10" class="stereotype">«use»</text>
  </g>
  <g transform="translate(440,380)">
    <desc>ConcreteCreator creates ConcreteProduct.</desc>
    <path d="M 175 -10 l 20 10 l -20 10"/>
    <line x1="0" y1="0" x2="195" y2="0" stroke-dasharray="6,3"/>
    <text x="100" y="-10" class="stereotype">«create»</text>
  </g>
</svg>